<svg xmlns="http://www.w3.org/2000/svg" width="87.625" height="21.75" viewBox="0 0 87.625 21.75">
  <metadata><?xpacket begin="﻿" id="W5M0MpCehiHzreSzNTczkc9d"?>
<x:xmpmeta xmlns:x="adobe:ns:meta/" x:xmptk="Adobe XMP Core 5.6-c142 79.160924, 2017/07/13-01:06:39        ">
   <rdf:RDF xmlns:rdf="http://www.w3.org/1999/02/22-rdf-syntax-ns#">
      <rdf:Description rdf:about=""/>
   </rdf:RDF>
</x:xmpmeta>
                                                                                                    
                                                                                                    
                                                                                                    
                                                                                                    
                                                                                                    
                                                                                                    
                                                                                                    
                                                                                                    
                                                                                                    
                                                                                                    
                                                                                                    
                                                                                                    
                                                                                                    
                                                                                                    
                                                                                                    
                                                                                                    
                                                                                                    
                                                                                                    
                                                                                                    
                                                                                                    
                           
<?xpacket end="w"?></metadata>
<defs>
    <style>
      .cls-1 {
        fill: #fff;
        fill-rule: evenodd;
      }
    </style>
  </defs>
  <path id="MoGo" class="cls-1" d="M386.16,50L386.1,29h-3.99l-7.74,13.05L366.51,29h-4.02V50h4.56V37.67l6.15,10.11h2.19l6.18-10.38L381.6,50h4.56Zm12.33,0.24a9.592,9.592,0,0,0,4.56-1.065,7.953,7.953,0,0,0,3.15-2.955,8.642,8.642,0,0,0,0-8.58,7.956,7.956,0,0,0-3.15-2.955,10.327,10.327,0,0,0-9.135,0,7.912,7.912,0,0,0-3.165,2.955,8.642,8.642,0,0,0,0,8.58,7.909,7.909,0,0,0,3.165,2.955,9.673,9.673,0,0,0,4.575,1.065h0Zm0-3.84a3.946,3.946,0,0,1-2.97-1.215,4.494,4.494,0,0,1-1.17-3.255,4.5,4.5,0,0,1,1.17-3.255,3.946,3.946,0,0,1,2.97-1.215,3.9,3.9,0,0,1,2.955,1.215A4.534,4.534,0,0,1,402.6,41.93a4.533,4.533,0,0,1-1.155,3.255A3.9,3.9,0,0,1,398.49,46.4h0Zm26.49-1.08a7.882,7.882,0,0,1-3.78.9,7.155,7.155,0,0,1-3.525-.855,6.141,6.141,0,0,1-2.415-2.385,7.455,7.455,0,0,1,0-6.99,6.015,6.015,0,0,1,2.43-2.37,7.409,7.409,0,0,1,3.57-.84,7.219,7.219,0,0,1,5.43,2.37l3.12-2.88a9.931,9.931,0,0,0-3.78-2.7,13.008,13.008,0,0,0-5.01-.93,12.511,12.511,0,0,0-5.94,1.395,10.328,10.328,0,0,0-4.125,3.87,11.283,11.283,0,0,0,0,11.19,10.385,10.385,0,0,0,4.1,3.87,12.273,12.273,0,0,0,5.88,1.395,15.386,15.386,0,0,0,4.53-.69,12.677,12.677,0,0,0,3.96-1.98V39.17h-4.44v6.15Zm16.289,4.92a9.587,9.587,0,0,0,4.56-1.065,7.94,7.94,0,0,0,3.15-2.955,8.642,8.642,0,0,0,0-8.58,7.943,7.943,0,0,0-3.15-2.955,10.327,10.327,0,0,0-9.135,0,7.919,7.919,0,0,0-3.165,2.955,8.642,8.642,0,0,0,0,8.58,7.915,7.915,0,0,0,3.165,2.955,9.676,9.676,0,0,0,4.575,1.065h0Zm0-3.84a3.946,3.946,0,0,1-2.97-1.215,4.494,4.494,0,0,1-1.17-3.255,4.5,4.5,0,0,1,1.17-3.255,3.946,3.946,0,0,1,2.97-1.215,3.9,3.9,0,0,1,2.955,1.215,4.529,4.529,0,0,1,1.155,3.255,4.529,4.529,0,0,1-1.155,3.255,3.9,3.9,0,0,1-2.955,1.215h0Z" transform="translate(-362.5 -28.625)"/>
</svg>
